<?xml version="1.0" encoding="UTF-8"?>
<svg width="1200pt" height="1200pt" version="1.1" viewBox="0 0 1200 1200" xmlns="http://www.w3.org/2000/svg">
 <path d="m175.08 330.19c1.1719 1.6406 2.4844 3.0938 3.9844 4.5 3.8438 3.5156 8.3906 5.5781 13.406 6.5156-10.312 24.188-12.188 42.562-5.6719 55.688-9.8438 23.625-44.484 110.34-47.25 168.52-11.859 13.5-31.594 32.344-44.484 25.828-0.9375-0.46875-3.7031-1.875-5.5781-7.6406-13.406-42.141 48.375-179.34 85.594-253.4zm76.5 401.39c-3.4688 0-6.1875-1.3594-8.9062-4.4531-19.172-21.75-16.594-98.531-12.609-142.26 3.4219 1.125 6.8438 1.6406 10.266 1.6406 26.109 0 50.906-30.188 66.469-54.094 0.98438 8.3438 2.25 16.641 3.7969 24.75-6.8438 70.922-30.141 174.42-59.016 174.42zm-64.172 54.375c-2.7656 0-5.0156-1.0312-7.3125-3.4219-11.906-12.375-15.188-51.188-14.484-73.172 5.8125-36.891 9.2344-70.828 10.734-87 10.828-0.79688 21.656-7.3125 32.531-19.594-2.1562 32.812-2.9062 79.031 6.0938 110.91-1.1719 29.578-10.594 72.281-27.562 72.281zm14.391-373.78c6.1875 3.2344 13.266 4.5938 20.766 4.5938 2.9531 0 5.9531-0.23438 9-0.60938-4.6406 15.375-11.531 39.703-16.734 65.016-8.0625 39.281-9.2812 66.797-3.5625 83.812-15.516 26.953-30.328 40.5-41.016 37.266-2.1562-0.65625-5.2969-2.1094-7.7344-7.3594-15.281-32.812 19.5-133.64 39.281-182.72zm100.64-25.359c0.75 12.047 0.65625 27.328 0.5625 44.672-0.09375 20.578-0.23438 43.453 0.98438 66.75-12.938 25.031-42.141 68.484-63.516 68.484-1.875 0-3.6562-0.32812-5.3906-1.0312-1.6406-0.65625-15.656-8.5781-0.9375-80.484 6.5156-31.875 16.078-62.953 19.781-74.484 18.516-6.2812 36.469-16.359 48.516-23.906zm-96.797 3.375c-6.0469-8.0156-2.625-26.484 9.3281-50.906 25.031-7.0312 53.625-27.609 70.078-40.641 6.5625 20.484 11.859 43.734 15 66.281-27.422 18.422-79.641 44.812-94.406 25.266zm-13.266-69.984c-5.1562-4.7344-4.875-16.641 0.75-31.031 10.641-27.328 35.766-53.156 51.75-53.156 11.109 0 23.016 17.578 33.234 43.031-34.172 28.172-75.281 50.766-85.734 41.156zm-93.797 291.94c0.70312 0.046875 1.4062 0.14062 2.1562 0.14062 12.234 0 25.734-6.7969 40.406-20.297 0.84375 4.0781 2.0156 7.875 3.6094 11.203 2.9062 6.2812 7.125 11.109 12.328 14.391-1.5469 17.203-6.2344 65.109-14.859 112.5-19.828 108.7-41.531 111.84-43.922 111.84-1.0781 0-2.3438-0.28125-4.0781-2.2969-20.109-23.859-8.5312-147.79 4.3594-227.48zm22.688 355.6c-11.156 0-20.531-13.594-26.812-26.203 4.8281-23.484 9.0938-50.719 12.75-81.516 18.562-6.7031 33.562-34.969 46.125-87.094 2.9531 9.1875 6.9844 17.438 12.609 23.297 3.2344 3.3281 6.8906 5.8125 10.875 7.4062-7.0781 69.188-28.5 164.11-55.547 164.11zm86.953-47.484c-8.8594 2.0625-18.422-4.125-28.547-18.375 1.0781-4.1719 2.1094-8.5312 3.1406-13.031 7.9219-35.109 12.094-69.703 13.641-84.609 21.422-6.6562 30.891-36.656 35.016-60.609 5.7656 4.9688 12.609 7.6406 20.062 7.6406 0.28125 0 0.5625-0.046876 0.84375-0.046876-1.4531 70.125-15.375 162.28-44.156 169.03zm93-80.484c-11.859 3.6562-24.703-8.2031-34.078-20.016 4.0312-33.375 4.875-63.797 5.0625-75.844 17.25-13.031 31.359-43.688 42.797-92.719 3.8906-16.594 6.9375-33.094 9.2344-47.531 4.0312 9.5625 8.8125 18.609 14.531 26.859 3.0469 82.219-6.4688 199.78-37.547 209.26zm91.594-86.484c-2.4375 0.89063-4.6875 0.79688-7.3594-0.42187-11.25-5.1562-22.828-26.625-28.078-40.172 1.2656-22.734 1.5469-44.016 1.4531-59.719 11.812 9.8438 26.297 17.297 42.141 22.828 4.9219 34.5 2.9531 73.266-8.1562 77.484zm155.21-99.328c-6.8906 10.828-18.234 17.156-31.125 17.344-51.422 0.75-119.53-5.4844-151.74-39.234-43.312-45.422-42.844-135-42.469-200.39 0.09375-20.344 0.1875-37.922-1.0312-51.562-3.1406-34.594-25.406-163.74-76.828-163.74-27.469 0-57.75 34.125-70.078 65.719-1.9219 4.9219-3.3281 9.6562-4.3125 14.156-15.188 28.641-119.86 230.02-99.703 293.26 1.9688 6.2344 5.0625 11.203 9.1875 14.906-2.4844 15.469-9.0469 58.219-12.984 103.55-10.266 117.61 6.6562 137.72 12.234 144.32 2.4844 2.9062 5.2969 5.1562 8.3438 6.75-11.25 93.656-29.016 155.95-49.078 171.52-4.3594 3.375-7.5938 3.375-9.6562 3.0938-2.4844-0.32812-5.0156-2.2969-7.5469-5.8125-37.031-51.281-18.938-335.72 4.5469-464.26 11.578-63.562 41.062-164.76 80.766-247.6 32.766-68.344 84.375-149.76 144.42-149.76 60.609 0 172.64 169.08 299.63 452.29 5.25 11.719 4.3125 24.609-2.5781 35.438z" fill="#00adee"/>
 <path d="m814.6 752.81c-2.6719 1.2188-4.9219 1.3594-7.3594 0.42188-11.297-4.2656-13.172-42.375-8.1562-77.484 15.891-5.5781 30.328-12.984 42.141-22.828-0.09375 15.656 0.1875 36.938 1.4531 59.719-5.2969 13.594-16.875 35.016-28.078 40.172zm84.188 86.953c-31.078-9.5156-40.641-127.03-37.547-209.21 5.7188-8.2969 10.5-17.297 14.531-26.859 2.3438 14.438 5.3438 30.891 9.2344 47.531 11.438 49.031 25.594 79.688 42.797 92.719 0.1875 12.047 1.0781 42.469 5.0625 75.844-9.375 11.766-22.219 23.625-34.078 19.969zm122.16-505.08c1.5-1.3594 2.8125-2.8594 3.9844-4.5 37.219 74.062 99 211.26 85.594 253.36-1.8281 5.7656-4.6406 7.1719-5.5781 7.6406-12.891 6.4688-32.625-12.328-44.484-25.828-2.8125-58.172-37.406-144.89-47.25-168.52 6.5156-13.125 4.6406-31.5-5.6719-55.688 5.0156-0.89063 9.5625-2.9531 13.406-6.4688zm84.891 504.94c-1.7344 2.0156-2.9531 2.2969-4.0781 2.2969-2.3906 0-24.094-3.1406-43.922-111.84-8.625-47.344-13.312-95.25-14.859-112.5 5.2031-3.2812 9.4219-8.1562 12.328-14.391 1.5469-3.3281 2.7188-7.0781 3.6094-11.203 14.672 13.5 28.172 20.297 40.406 20.297 0.70313 0 1.4062-0.09375 2.1562-0.14062 12.844 79.688 24.422 203.63 4.3594 227.48zm-85.922-57.094c-2.2969 2.3438-4.5469 3.4219-7.3125 3.4219-16.969 0-26.391-42.703-27.562-72.281 9-31.828 8.25-78.094 6.0938-110.91 10.875 12.328 21.656 18.797 32.531 19.594 1.5 16.172 4.9219 50.156 10.734 87 0.70312 21.984-2.5781 60.797-14.484 73.172zm-130.55-225.37c1.5469-8.1562 2.8125-16.406 3.7969-24.75 15.562 23.906 40.359 54.094 66.469 54.047 3.4219 0 6.8438-0.5625 10.312-1.6406 4.7344 50.812 4.9219 122.39-12.609 142.26-2.7188 3.0938-5.4844 4.4531-8.9062 4.4531-28.875 0.046875-52.172-103.45-59.062-174.37zm7.6406-125.68c-0.09375-17.344-0.1875-32.625 0.5625-44.672 12.047 7.5 30 17.578 48.562 23.906 3.7031 11.531 13.219 42.609 19.781 74.484 14.719 71.906 0.70313 79.828-0.9375 80.484-21.609 8.7188-54.891-40.266-68.906-67.5 1.125-23.25 1.0312-46.078 0.9375-66.703zm101.2-19.359c19.781 49.078 54.562 149.9 39.281 182.72-2.4375 5.25-5.5781 6.7031-7.7344 7.3594-10.688 3.2344-25.5-10.312-41.016-37.266 5.7188-17.016 4.4531-44.531-3.5625-83.812-5.2031-25.312-12.047-49.641-16.734-65.016 3.0469 0.375 6.0469 0.60938 9 0.60938 7.5 0.046875 14.578-1.3125 20.766-4.5938zm9.4219-91.922c-10.5 9.6094-51.609-12.984-85.688-41.156 10.172-25.453 22.125-43.031 33.234-43.031 15.938 0 41.109 25.828 51.75 53.156 5.5781 14.391 5.8594 26.297 0.70312 31.031zm-22.594 19.078c11.953 24.422 15.375 42.891 9.3281 50.906-14.766 19.547-66.984-6.8438-94.406-25.219 3.1406-22.547 8.4375-45.844 15-66.281 16.406 12.984 45.047 33.562 70.078 40.594zm6.75 580.97c-28.781-6.75-42.703-98.906-44.203-169.03 0.28125 0 0.5625 0.046875 0.84375 0.046875 7.4531 0 14.297-2.625 20.062-7.6406 4.125 24 13.594 53.953 35.016 60.609 1.5938 14.906 5.7188 49.5 13.641 84.609 1.0312 4.5 2.0625 8.8125 3.1406 13.031-10.078 14.25-19.641 20.438-28.5 18.375zm86.953 47.484c-27 0-48.469-94.922-55.5-164.16 3.9375-1.5938 7.6406-4.0312 10.875-7.4062 5.625-5.8125 9.6562-14.109 12.609-23.297 12.562 52.125 27.562 80.438 46.125 87.094 3.6562 30.797 7.875 58.031 12.75 81.516-6.3281 12.656-15.703 26.25-26.859 26.25zm100.08 60.094c-2.5312 3.5156-5.1094 5.4844-7.5469 5.8125-2.0625 0.28125-5.2969 0.28125-9.6562-3.0938-20.062-15.562-37.875-77.859-49.078-171.52 3.0469-1.5469 5.9062-3.7969 8.3438-6.75 5.5781-6.6094 22.5-26.672 12.234-144.32-3.9375-45.328-10.5-88.078-12.984-103.55 4.125-3.75 7.2188-8.7188 9.1875-14.906 20.156-63.234-84.516-264.66-99.75-293.34-0.98437-4.5-2.3906-9.2344-4.3125-14.156-12.281-31.594-42.609-65.719-70.078-65.719-51.422 0-73.688 129.14-76.828 163.74-1.2188 13.641-1.125 31.219-1.0312 51.562 0.375 65.391 0.84375 155.02-42.469 200.39-32.203 33.75-100.31 39.984-151.74 39.234-12.891-0.1875-24.234-6.5156-31.125-17.344s-7.8281-23.719-2.5781-35.438c126.98-283.13 239.02-452.21 299.63-452.21 60.047 0 111.66 81.422 144.42 149.72 39.703 82.828 69.188 184.03 80.812 247.6 23.484 128.53 41.578 412.97 4.5469 464.29z" fill="#00adee"/>
</svg>
