<?xml version="1.0" encoding="UTF-8"?>
<svg width="1200pt" height="1200pt" version="1.1" viewBox="0 0 1200 1200" xmlns="http://www.w3.org/2000/svg">
 <path d="m1041.4 871.4c-9-8.0625-21.188-11.438-33.375-9.1875-72 13.125-181.69-13.688-240-30.75l97.312-9c43.594-4.3125 39-68.953-3.5625-68.062l-13.312-0.75 106.31-57.188c34.5-19.734 14.297-73.594-24.562-65.625l-8.4375 1.6875-1.3125-2.625 62.812-64.5c29.062-30.094-5.2969-78.938-43.5-61.688l-23.438 10.688-1.5-1.6875 32.062-50.625c29.297-43.641-14.484-103.08-64.875-88.125-3.5625 1.125-5.4375-1.125-6.1875-2.0625s-2.0625-3.5625 0-6.5625l40.688-60.188c27.609-38.25-9.75-94.828-55.875-83.812-6.1406 0.60938-9.5156-3.4219-7.875-9.375 18.094-43.078 13.453-143.44-47.812-146.26-16.922-0.046875-32.391 9.3281-40.125 24.562-38.812 76.875-82.688 208.31-112.5 304.87-13.547 44.344-14.391 89.25-32.438 132.19-37.688 91.125-129.74 147.56-229.13 140.26-48.891-1.7812-81.047-13.312-121.5-2.0625-83.625 25.875-93 100.12-93.188 130.87 0.79687 22.547-13.5 46.969-27.375 64.125-8.25 10.266 1.3594 26.672 14.438 24.188 42.422-6.2344 93.516-20.25 131.81 7.5 13.406 7.875 24.141 15.328 35.812 27.938 120.94 131.44 299.63 79.125 301.5 78.562 117.94-35.062 174.56 54.938 197.81 111.75 29.391 57.984 86.859-5.0625 115.5-27.75-9.2812-6.8906-62.438-42.609-73.125-50.25-20.344-13.969 1.0312-44.578 21.188-30.938 10.406 6.9375 70.453 48.516 79.875 54.938 15.375-15.75 27.938-30.75 38.062-45.188-9.375-5.8594-75.656-43.5-86.812-50.25-21.094-12.938-2.5312-44.531 18.938-32.438 10.734 6.1875 78.188 45.234 87.75 50.812 15.562-29.625 21.562-55.688 22.875-76.688 0.75-12-3.9375-23.438-12.938-31.312zm-202.31-553.31-35.25 75.938c20.812-4.5 42.562 5.625 52.312 25.125 8.0625 16.125 6.375 35.25-4.5 49.688l-21.75 28.875c39.328-2.4375 65.906 47.719 40.5 78.75l-28.312 37.688c36.656 9.0938 42.422 62.25 7.875 78.938l-31.125 15.375c-22.172 10.828-38.719-22.078-16.688-33.562l30.938-15.375c5.5312-2.7188 1.5469-11.578-3.9375-9l-25.312 10.312c-17.016 7.4531-33.797-13.875-22.125-28.5l58.875-78.375c6.5625-8.2031-1.8281-21.188-12.188-18.375l-39.375 9.375c-16.219 4.7344-29.953-16.266-19.312-29.438l51.938-69.188c6-7.3125-2.4844-18.938-11.25-15.188l-36 12.938c-14.812 6-30.75-11.109-23.438-25.5l54.188-116.44c5.7656-12.797-11.719-23.953-20.625-12.375l-17.25 22.5c-15.141 19.453-44.344-2.8125-29.812-22.688l17.25-22.5c35.719-46.547 108.8-2.2969 84.375 51zm-580.5 437.06c24.609 0.46875 24.609 37.031 0 37.5-24.609-0.46875-24.609-37.031 0-37.5z" fill="#00adee"/>
 <path d="m379.13 628.97c86.953 11.719 173.11-34.266 206.06-115.88 16.641-40.078 17.484-85.922 31.312-129 6.7031-21.797 14.438-46.406 21.938-69.188-14.438-12.75-35.812-14.812-52.875-4.6875-8.0625 5.2031-19.922-0.42188-21-10.125-3.0938-13.266-4.875-53.672-12.75-65.062-14.438-27.328-49.5-35.531-76.5-20.062-6.75 3.5625-16.547 0.1875-18.562-7.3125-14.953-50.953-79.031-117.05-118.69-92.812-12.75 7.3125-20.25 20.438-20.438 34.875-1.125 47.203-1.5 144.24 2.625 186.94 4.875 67.125 39.562 214.13 58.875 292.31zm180.74-153.74c-10.172 0.89063-19.828-5.7188-21-16.312l-7.125-55.875c0.14062-8.3438-7.5938-13.781-13.875-10.125-21.469 13.781-52.031-1.0312-55.125-26.25l-5.0625-36c-2.0625-12.938-16.125-16.031-26.438-9.375-9.375 4.5-20.438 0.5625-24.938-8.8125-5.5781-11.297 1.6875-23.109 12.938-27 25.688-12.188 56.25-2.4375 69.562 22.125 7.1719 10.875 8.7188 41.203 11.062 53.812 27.891-20.297 69.469 5.3438 69.188 38.812l6.9375 54c1.3125 10.312-5.8125 19.688-16.125 21z" fill="#00adee"/>
</svg>
