<?xml version="1.0" encoding="UTF-8"?>
<svg width="1200pt" height="1200pt" version="1.1" viewBox="0 0 1200 1200" xmlns="http://www.w3.org/2000/svg">
 <path d="m509.72 1059.6c-156.73-64.875-178.67-174.19-178.86-175.31-0.375-2.6445-1.875-4.875-4.125-6.1875-195.54-124.12-159.54-454.31-159-457.69 0.39453-4.293-2.25-8.4375-6.375-9.9375s-8.625 0.20703-11.062 3.9375c-6.5625 10.688-159.19 262.5-61.5 456.75 59.812 118.69 200.42 188.44 417.71 207h0.75 0.1875c5.4375 0 9.5625-4.125 9.5625-9.375 0-4.5-3.1875-8.25-7.293-9.1875zm-171.75-75.188c-1.6875 1.5-3.75 2.25-5.8125 2.25-2.8125 0-5.4375-1.3125-7.332-3.5625-27.73-33.75-36-67.125-36.355-68.418-1.1445-5.082 1.875-10.125 6.9375-11.27 5.0625-1.293 10.125 1.8945 11.25 6.75 0.1875 0.375 7.6875 30.938 32.625 61.125 3.375 3.9375 2.832 9.9375-1.3125 13.125zm33 28.125c-1.875 2.4375-4.6875 3.9375-7.4805 3.9375-2.0625 0-3.9375-0.75-5.625-1.875-3.9375-3-7.6875-6-11.27-9-3.9375-3.375-4.293-9.375-0.9375-13.312 3.375-3.75 9.375-4.293 13.312-0.75 3.1875 2.625 6.582 5.25 9.9375 7.875 4.3125 3.1875 5.0625 9 2.0625 13.125z" fill="#0a94cd"/>
 <path d="m994.37 350.81c-2.9805-2.25-7.125-2.4375-10.5-0.5625-3.1875 2.0625-5.0625 5.6445-4.5 9.582 0.5625 2.9805 43.48 303.73-102.56 473.44-96.938 112.5-257.04 143.06-472.09 90.543-4.5-1.125-8.832 1.1445-10.688 5.25-1.875 3.9375-0.75 8.8125 3 11.438 7.125 5.25 176.42 126.56 360.9 126.56 162 0 281.79-92.438 356.42-274.69 108.39-264.75-117.73-439.69-119.98-441.56zm115.48 243.56c2.25 10.125 3.5625 18 4.5 30.168 0.5625 5.25-3.375 9.7695-8.4375 10.332h-0.9375c-4.6875 0-8.8125-3.75-9.1875-8.625-0.9375-11.438-2.043-18.375-4.293-27.75-1.1445-4.875 2.043-9.9375 7.125-11.25 5.043-1.125 10.121 2.0625 11.23 7.125zm-29.797-33c-2.043-4.6875 0-10.332 4.6875-12.375 4.6875-2.0625 10.312 0 12.562 4.6875 0 0 2.6445 5.9805 6 16.105 1.5 4.8945-1.1445 10.332-6.1875 11.812-0.9375 0.39453-1.875 0.5625-2.8125 0.5625-3.9375 0-7.668-2.625-8.8125-6.5625-3.0156-8.793-5.2656-14.043-5.4375-14.23zm26.609 136.12c-1.293 3.9375-4.875 6.5625-8.8125 6.5625-0.9375 0-2.0625-0.1875-3-0.5625-4.875-1.6875-7.4805-6.918-6-11.812 3.9375-11.625 6.3945-23.98 7.1445-37.105 0.375-5.25 4.875-9.375 10.125-8.8125 5.0625 0.375 8.9805 4.875 8.625 9.918-0.95703 14.812-3.7539 28.875-8.082 41.812z" fill="#0a94cd"/>
 <path d="m577.76 923.62c203.79 0 376.12-187.11 376.12-408.75 0-36.938-4.6875-72.938-14.062-107.06-0.20703-0.375-0.39453-0.5625-0.5625-0.9375-0.1875-0.5625-0.39453-1.1445-0.75-1.6875-0.39453-0.5625-0.75-0.95703-1.3125-1.5-0.1875-0.20703-0.375-0.5625-0.54297-0.75-0.39453-0.1875-0.5625-0.1875-0.75-0.39453-0.39453-0.1875-0.95703-0.54297-1.5-0.75-0.5625-0.1875-1.3125-0.54297-1.8945-0.54297-0.54297-0.20703-0.9375-0.20703-1.5-0.20703-0.75 0-1.293 0-2.043 0.20703h-0.75c-0.39453 0.1875-0.5625 0.375-0.9375 0.54297-0.5625 0.20703-1.1445 0.39453-1.707 0.75-0.54297 0.39453-0.9375 0.75-1.5 1.3125-0.1875 0.1875-0.375 0.375-0.73047 0.5625l-3.5625 4.4805c-57.562 72.77-209.61 264.75-354.92 264.75h-4.1445c-139.65-3.543-279.17-177.17-332.59-251.62-0.20703-0.375-0.75-0.54297-0.95703-0.9375-0.54297-0.375-0.9375-0.9375-1.5-1.3125-0.54297-0.375-1.293-0.54297-1.875-0.75-0.375-0.1875-0.75-0.54297-1.3125-0.75h-0.1875c-1.125-0.1875-2.043 0-3.1875 0-0.1875 0.20703-0.375 0-0.375 0.20703-0.75 0-1.3125 0.375-2.0625 0.75-0.39453 0.1875-0.9375 0.375-1.5 0.54297 0 0.20703 0 0.20703-0.1875 0.20703-0.39453 0.1875-0.5625 0.54297-0.75 0.9375-0.5625 0.375-1.1445 0.9375-1.5 1.5-0.39453 0.54297-0.5625 1.125-0.75 1.6875s-0.5625 0.9375-0.5625 1.5c-6.375 29.418-9.5625 59.438-9.5625 89.25 0 221.64 172.11 408.77 375.9 408.77z" fill="#0a94cd"/>
 <path d="m470.53 602.44c1.875 1.5 3.75 2.8125 5.4375 4.3125 1.6875 1.125 3.75 1.875 5.625 1.875 3 0 5.832-1.3125 7.5-3.75 3.1875-4.125 2.4375-10.125-1.6875-13.125-1.707-1.125-3.207-2.4375-4.6875-3.543-0.39453-0.39453-0.75-0.5625-1.1445-0.9375-96.168-74.625-122.61-151.31-122.61-213.19 0-72.957 36.938-125.27 39.75-129.21 2.25-3.1875 2.4375-7.4805 0.1875-10.668-2.25-3.3945-6.1875-4.6875-9.918-3.9375-4.8945 1.125-116.46 29.062-130.71 109.69-12.73 72.543 58.688 160.86 212.25 262.48z" fill="#0a94cd"/>
 <path d="m621.84 631.31c1.125 0.5625 2.2305 0.75 3.375 0.75 3.1875 0 6-1.5 7.875-4.293 2.4375-3.75 1.875-8.6445-1.3125-11.832-1.875-1.875-191.61-193.88-156.19-308.06 12.188-39.188 51.188-65.438 115.89-77.625 39.75-7.6875 106.31 14.062 137.81 63.375 21.73 33.75 22.855 74.25 3.1875 117.38-8.4375 18.375-30.75 39.75-66 39.75-18.562 0-39-6-60.188-17.625-21.562-12-58.5-45.562-43.332-87 6.9375-18.938 25.875-41.062 56.25-41.062 16.312 0 34.5 6.1875 54 18.207 4.1445 2.4375 9.1875 1.6875 12.188-1.8945 3-3.543 2.8125-8.8125-0.1875-12.168-25.5-28.688-54.562-43.125-86.062-43.125-33.375 0-57 16.5-57.75 17.25-27.375 19.125-42.395 46.312-43.5 78.375-1.5 42.375 21.188 83.812 44.625 102.73 42.188 34.52 84.375 51.77 125.44 51.77 83.605 0 140.04-72.75 152.02-121.88 44.832-185.62-134.42-234.19-136.67-234.77-23.438-5.0625-46.668-7.4805-69-7.4805-122.62 0-193.48 73.5-216.73 136.48-82.48 222 221.25 341.62 224.25 342.75z" fill="#0a94cd"/>
 <path d="m828.07 434.62c-1.707 3.75-0.75 8.082 2.2305 10.688 1.707 1.6875 3.957 2.4375 6.3945 2.4375 1.5 0 2.9805-0.375 4.293-1.125 1.5-0.75 137.25-75.562 89.812-210.39-9.375-26.812-47.625-114.38-143.25-114.38-18.938 0-39.188 3.5625-60.168 10.5-3.5625 1.1445-6.1875 4.3125-6.375 8.082-0.39453 3.75 1.4805 7.3125 4.875 9.1875 181.67 97.875 105.56 277.5 102.19 285zm61.125-93.75c16.312-39.375 5.625-66.375 5.0625-67.5-1.875-4.6875 0.20703-10.125 5.082-12.188 4.6875-2.043 10.125 0.20703 12.168 4.8945 0.5625 1.4805 14.457 35.043-4.875 82.125-1.5 3.543-5.0625 5.8125-8.625 5.8125-1.3125 0-2.4375-0.375-3.75-0.75-4.707-2.082-6.957-7.5195-5.0625-12.395z" fill="#0a94cd"/>
</svg>
