<?xml version="1.0" encoding="UTF-8"?>
<svg width="1200pt" height="1200pt" version="1.1" viewBox="0 0 1200 1200" xmlns="http://www.w3.org/2000/svg">
 <path d="m739.92 912.1c20.625-0.65625 37.828 1.7812 52.828 6.0938-103.41 167.29-236.81 199.08-408.1 96.891-89.625-48.516-155.02-157.6-142.87-238.22 7.3594-48.656 41.062-80.391 97.453-91.781 21.797 8.625 43.641 13.734 64.312 13.734 15.094 0 29.484-2.8594 42.938-8.7188 11.625 25.547 24.094 46.875 40.359 63.656-28.078 11.344-56.062 23.156-83.344 35.625-2.3906 1.0781-3.7969 3.6094-3.4688 6.1875 3.4219 28.078 19.406 38.906 32.203 43.031 6.1875 2.0156 13.078 2.9531 20.531 2.9531 27.562 0 62.578-12.984 97.172-32.906 0.70312 0.46875 1.3594 0.84375 2.0625 1.2656-19.078 28.969-24.047 51.328-14.812 68.156 18.75 34.078 91.5 38.297 202.74 34.031zm281.9-198.47c-49.219 62.344-111.98 93.703-187.13 93.703-22.781 0-46.734-2.9062-71.766-8.6719-20.719 21.375-42.984 35.531-67.078 42.703-11.719 3.4688-23.906 5.25-36.422 5.25-30.234 0-62.766-10.172-97.125-30.328-16.359 24.75-21.328 43.641-14.484 56.062 16.594 30.234 102 31.219 191.76 27.797 59.344-1.6406 92.953 20.578 122.63 40.125 25.594 16.875 47.906 31.594 82.312 29.766 12-28.922 34.875-63.234 57-96.469 37.828-56.766 76.969-115.45 64.078-147.74-4.6406-11.625-16.078-19.453-34.922-23.953-2.9062 3.9375-5.8125 7.875-8.8594 11.766zm-67.219-412.82c-15.469-13.875-34.875-31.312-39.938-30.609-0.046875 0.09375-0.14062 0.1875-0.14062 0.32813 28.688 33.703 46.125 68.156 52.266 103.83 11.953 69.047-18.516 142.36-92.812 223.87 35.484 15.281 51.656 29.484 50.203 44.438-2.0156 20.578-37.5 34.5-93.047 47.484-18.094 40.922-37.641 73.594-58.875 98.25 99.609 21 180.42-6.5156 240.14-82.125 88.641-112.27 98.953-287.63 88.125-323.58-52.875 1.4531-106.55-46.5-145.92-81.891zm-557.86 242.39c16.453 53.906 70.547 78 168.94 74.391-19.219-9.1875-41.016-22.406-63.656-36.141-39.938-24.234-83.391-50.625-118.59-58.125 6.4688 4.0312 11.438 10.312 13.312 19.875zm168.52-207.19c-17.578-3.9844-34.125 0.79688-45.234 13.219-18.984 21.141-20.812 59.625-5.0156 105.56 0.1875 0.46875 0.14062 0.98438 0.1875 1.4531 5.7188 3.6094 10.688 6.75 14.203 8.8125 0.1875-0.60938 0.23438-1.2188 0.46875-1.8281 10.125-30.703 35.25-50.25 67.219-52.266 15.797-0.98438 31.031 2.4375 44.109 9.1875-19.312-53.391-51.188-78.516-75.938-84.141zm-243.98 341.21c-34.312-16.688-67.734-41.531-95.438-69-33.422-33.141-65.297-77.531-83.672-126.05-45.422 89.953-57.234 159.84-35.953 213.37 17.672 44.438 57.844 77.391 122.26 100.83 0.046876-7.2188 0.42188-14.344 1.4531-21.281 7.3594-48.609 39.609-82.828 91.359-97.875zm177.52 71.766c50.016-19.922 99.984-38.25 146.21-55.172 13.172-4.8281 26.156-9.5625 38.766-14.25 34.5-24.469 68.672-49.453 99.375-74.859-32.531 10.312-64.922 12.375-100.83 14.578-26.016 1.5938-52.875 3.2344-83.109 8.2031-17.812 1.5469-34.547 2.2969-50.156 2.2969-56.578 0-98.531-10.266-126.66-30.844 4.0312 10.031 7.9219 19.828 11.625 29.25 20.672 52.781 37.078 94.5 64.781 120.79zm-57.094-69.844c-6.1875-14.438-12.328-29.859-18.844-46.547-6.4219-16.359-13.219-33.703-20.859-51.844-0.32812-0.75-0.46875-1.5-0.46875-2.2969-7.1719-9.4688-12.703-20.203-16.406-32.344-1.9688-9.7969-9.0938-21.469-49.5-16.219-2.7188 0.28125-5.3906-1.2188-6.375-3.7969-0.9375-2.5781-0.046875-5.4844 2.2031-7.0781 16.312-11.297 36.891-11.812 59.578-6.0469-8.3906-47.766-8.1094-92.016 0.1875-131.39-0.09375-0.375-0.28125-0.75-0.28125-1.125-2.1562-44.719 21.328-101.34 58.594-150.56-138.61-56.672-227.02-27.047-294.79 98.625-46.734 95.531 13.641 205.82 79.547 271.18 70.688 70.078 155.02 102.05 207.42 79.453zm286.55-138.98c0.5625-3.5625 0.89062-7.125 0.84375-10.641-6.8438 4.5-13.828 8.2969-21 11.344 7.875 1.5938 14.578 1.3594 20.156-0.70312zm-85.266 40.359c-52.125-16.078-95.859-41.297-130.92-75.188-1.3125 20.531-5.6719 40.781-13.219 60.234 3.1406 1.875 6.2812 3.7969 9.375 5.6719 32.391 19.688 63 38.25 85.547 44.625 0.09375 0.046875 0.23438 0.046875 0.32812 0.09375 1.2188-0.09375 2.3906-0.1875 3.6094-0.28125 30.375-5.0156 57.562-6.6562 83.906-8.2969 26.531-1.6406 51.047-3.2812 75-8.2031 0.14062-0.75 0.46875-1.5 0.9375-2.2031l6.4219-9.1875c-16.125 2.5312-31.734 3.8438-46.922 3.8438-25.781 0-50.344-3.7031-74.062-11.109zm32.625-42.844c2.4375-19.172-18.75-33.844-40.781-39.562-22.078-5.7188-47.719-3.1406-54.891 14.766 34.594 20.531 66.328 28.828 95.672 24.797zm83.719-29.953c-0.84375 8.625-2.5781 16.547-5.5781 23.203-2.625 5.8594-7.3125 12.891-15.047 17.625-0.98438 2.1094-3.0469 3.4688-5.3438 3.4688-0.46875 0-0.9375-0.046875-1.4062-0.1875h-0.046875c-3.9375 1.3594-8.4844 2.2031-13.734 2.2031-8.1094 0-17.859-1.9688-29.531-6.75-8.9062 2.1094-18.047 3.1406-27.375 3.1406-36.797 0-76.734-16.312-119.48-48.891-7.6406-5.8125-12.281-14.391-13.359-23.484-6.2344-2.9062-18.844-11.016-47.906-29.766 37.688 57.797 93.422 98.391 166.03 120.74 38.625 12.094 79.641 13.828 125.21 5.25 1.6875-19.875-4.3125-43.781-12.422-66.562zm-116.11-57.328c4.2656-1.3594 8.9062-1.9688 13.641-2.1562-12.844-16.875-35.156-26.812-59.016-25.359-27.328 1.7344-47.953 17.812-56.578 44.062-3 9.0938 0.14062 19.172 7.8281 25.031 6.9844 5.3438 13.828 10.078 20.578 14.484 7.5469-16.266 25.266-23.016 44.531-23.016 5.4844-21.047 18.562-29.672 29.016-33.047zm82.125 67.219c0.65625-0.46875 1.4062-0.79688 2.2031-0.9375-3-13.172-10.312-25.688-21.703-36.188-10.969-10.125-24.328-16.922-36.938-19.359-1.0312 0.09375-2.0625-0.046875-3-0.42188-6.7969-0.98438-13.312-0.70312-18.984 1.125-10.078 3.2812-16.781 11.016-20.344 22.5 3.7969 0.51562 7.5469 1.2656 11.25 2.2031 25.875 6.7031 50.719 24.375 50.25 48.656 12.844-3.4688 25.266-9.2344 37.266-17.578zm-24.469-264.61c-59.859-42.797-143.68-43.875-208.6-2.7656-77.953 49.406-110.44 145.26-89.062 262.92 0.1875 1.1719-0.046875 2.25-0.42188 3.2812 27.234 9.0469 56.859 25.594 85.594 42.797 7.6875-20.438 11.906-41.719 12.281-63.375 0-0.79688 0.1875-1.5 0.42188-2.2031-16.875-18.281-31.734-38.531-44.016-61.312-1.3125-2.3906-0.79688-5.3906 1.2188-7.2188s5.0156-2.1094 7.3125-0.65625l18.562 11.953c4.8281 3.1406 10.312 6.6562 15.844 10.219-12.844-44.906-9.0938-82.922 11.062-105.38 14.156-15.75 34.875-21.844 56.812-16.875 24.562 5.5781 46.922 23.438 64.359 50.297 21.188-35.203 45-30.703 57.656-24.516 31.875 15.609 60 71.625 67.828 120.94 3.75 8.7188 7.4531 17.766 10.875 26.906 22.969-108.66-1.3125-197.58-67.734-245.02zm-139.26 548.68c48.234 29.953 92.25 39.609 130.78 28.172 47.062-13.969 88.781-59.906 124.08-136.45-20.812 4.5469-43.969 9.0469-68.953 13.781-45.562 8.5781-92.625 17.438-101.3 25.5-23.297 25.172-53.438 49.641-84.609 69zm-75.75-561.56c69-43.734 158.26-42.469 222 3.1406 6.75 4.8281 12.938 10.172 18.891 15.75 0.23438-0.09375 0.42188-0.28125 0.65625-0.375 39.422-11.859 72.469-10.266 98.203 4.7812 27.75 16.219 47.344 48.281 58.172 95.25 22.594 30.656 31.406 62.672 26.297 95.25-11.531 73.359-90 141.37-183.28 209.53 65.578-25.078 116.3-47.438 132.42-66.891 0.046876-0.046875 0.09375-0.046875 0.14063-0.09375 0.046874-0.046875 0.046874-0.14062 0.14062-0.1875 75.797-81.141 107.06-153.1 95.484-219.94-14.297-82.547-92.484-159.52-239.16-235.26-72.844-33.047-138.79-5.625-181.31 23.203-54.281 36.844-99.797 96.844-120.19 152.76 16.922-31.453 40.922-57.516 71.531-76.922zm297.24 340.22c-0.14062 0.84375-0.42187 1.6875-0.9375 2.4375l-8.5312 12.188c12.75-3.6094 25.406-8.3906 38.203-15 45.938-41.906 79.641-84.75 86.438-127.87 4.7344-30.047-3.375-58.547-24.797-87.234-0.51562-0.65625-0.84375-1.4531-1.0312-2.25-10.031-44.344-27.797-74.203-52.781-88.781-21.562-12.609-49.641-14.203-83.297-5.0625 50.625 55.547 65.906 142.08 41.438 243.94-0.42188 1.6875-1.5 2.9531-2.8594 3.75 6.9375 22.219 11.062 44.438 8.25 63.797-0.046874 0-0.09375 0.046875-0.09375 0.09375zm129.14 61.078c0.42188-4.2656-3.4219-15.891-46.734-33.891-24.234 24.797-90.422 51.141-176.02 82.734-0.23438 0.1875-0.46875 0.375-0.75 0.51562-1.0312 0.75-2.25 1.125-3.4688 1.125-0.046875 0-0.09375-0.046874-0.14062-0.046874-11.672 4.3125-23.672 8.7188-36 13.219-74.344 27.234-158.44 58.031-236.53 93.375 2.8594 15.188 10.5 24.609 23.344 28.734 46.172 14.859 146.34-43.125 201.74-102.98 10.969-10.219 48-17.578 107.53-28.781 65.625-12.375 164.72-31.078 167.02-54zm-169.45-115.45c18.938-41.812-17.484-145.22-58.125-165.1-16.781-8.25-32.016 0.28125-45.188 25.219-0.046875 0.14062-0.1875 0.1875-0.28125 0.32812 7.1719 13.172 13.312 28.031 18.094 44.391 0.046875 0.1875 0 0.375 0.046875 0.5625 5.8125 5.25 10.688 11.297 14.438 18.141 14.578 2.9531 29.625 10.547 42.141 22.125 17.438 16.125 26.766 36.281 27.094 57.234 0.65625-0.9375 1.3125-1.7812 1.7812-2.9062z" fill="#0a94cd"/>
</svg>
